<?xml version="1.0" encoding="utf-8"?>
<!-- Generator: Adobe Illustrator 16.0.0, SVG Export Plug-In . SVG Version: 6.00 Build 0)  -->
<!DOCTYPE svg PUBLIC "-//W3C//DTD SVG 1.1//EN" "http://www.w3.org/Graphics/SVG/1.1/DTD/svg11.dtd">
<svg version="1.1" id="Layer_1" xmlns="http://www.w3.org/2000/svg" xmlns:xlink="http://www.w3.org/1999/xlink" x="0px" y="0px"
	 width="536.845px" height="710.474px" viewBox="0 0 536.845 710.474" enable-background="new 0 0 536.845 710.474"
	 xml:space="preserve">
<g>
	<polygon fill="#262262" points="316.864,254.316 306.583,286.026 273.26,286.026 300.23,305.585 289.922,337.294 316.864,317.694 
		343.862,337.294 333.517,305.585 360.524,286.026 327.191,286.026 	"/>
	<polygon fill="#262262" points="221.819,254.316 211.51,286.026 178.191,286.026 205.143,305.585 194.848,337.294 221.819,317.694 
		248.78,337.294 238.471,305.585 265.437,286.026 232.146,286.026 	"/>
	<polygon fill="#262262" points="259.033,383.301 225.713,383.301 252.642,402.892 242.371,434.564 269.351,414.982 
		296.322,434.564 286.021,402.892 312.964,383.301 279.603,383.301 269.351,351.605 	"/>
	<polygon fill="#262262" points="373.379,383.301 363.034,351.582 352.762,383.301 319.401,383.301 346.4,402.882 336.101,434.592 
		363.034,414.982 390.004,434.592 379.714,402.882 406.703,383.301 	"/>
	<polygon fill="#262262" points="131.994,383.273 158.959,402.873 148.65,434.555 175.607,414.982 202.568,434.555 192.33,402.873 
		219.244,383.273 185.911,383.273 175.607,351.591 165.321,383.273 	"/>
	<path fill="#262262" d="M485.348,510.998c-29.247,92.946-115.7,158.539-216.94,158.539c-101.229,0-187.687-65.593-216.897-158.539
		H485.348 M535.371,470.043H1.451c13.993,135.104,128.167,240.431,266.957,240.431C407.189,710.474,521.368,605.147,535.371,470.043
		"/>
	<path fill="#262262" d="M268.413,155.026l268.432,260.815V0H0c0,0,0.024,377.61,0.024,415.804L268.413,155.026z M413.831,40.955
		h82.068v276.791l-82.068-79.755V40.955z M289.847,40.955h83.048v157.242l-83.048-80.692V40.955z M165.826,40.955h83.052v74.727
		l-83.052,80.734V40.955z M40.913,40.955h83.986V236.18l-83.986,81.598V40.955z"/>
</g>
</svg>
